<svg xmlns:dc="http://purl.org/dc/elements/1.1/" xmlns:cc="http://creativecommons.org/ns#" xmlns:rdf="http://www.w3.org/1999/02/22-rdf-syntax-ns#" xmlns:svg="http://www.w3.org/2000/svg" xmlns="http://www.w3.org/2000/svg" xmlns:sodipodi="http://sodipodi.sourceforge.net/DTD/sodipodi-0.dtd" xmlns:inkscape="http://www.inkscape.org/namespaces/inkscape" version="1.1" inkscape:version="0.48.3.1 r9886" width="1792" height="1792" sodipodi:docname="download_alt_font_awesome.svg"><rect id="backgroundrect" width="100%" height="100%" x="0" y="0" fill="none" stroke="none"/>
  <metadata id="metadata3011">
    <rdf:RDF>
      <cc:Work rdf:about="">
        <dc:format>image/svg+xml</dc:format>
        <dc:type rdf:resource="http://purl.org/dc/dcmitype/StillImage"/>
      </cc:Work>
    </rdf:RDF>
  </metadata>
  <defs id="defs3009"/>
  <sodipodi:namedview pagecolor="#ffffff" bordercolor="#666666" borderopacity="1" objecttolerance="10" gridtolerance="10" guidetolerance="10" inkscape:pageopacity="0" inkscape:pageshadow="2" inkscape:window-width="640" inkscape:window-height="480" id="namedview3007" showgrid="false" inkscape:zoom="0.13169643" inkscape:cx="896" inkscape:cy="896" inkscape:window-x="0" inkscape:window-y="25" inkscape:window-maximized="0" inkscape:current-layer="svg3001"/>
  
<g class="currentLayer" style=""><title>Layer 1</title><g id="g3003" class="selected" fill="#ffffff" fill-opacity="1">
    <path d="m1407.338983,503.27109999999993 q17,41 -14,70 L945.338983,1021.2710999999999 q-18,19 -45,19 q-27,0 -45,-19 L407.338983,573.2710999999999 q-31,-29 -14,-70 q17,-39 59,-39 h256 v-448 q0,-26 19,-45 q19,-19 45,-19 h256 q26,0 45,19 q19,19 19,45 V464.27109999999993 h256 q42,0 59,39 zm293,217 q14,0 23,9 q9,9 9,23 V1328.2711 q0,14 -9,23 q-9,9 -23,9 H100.338983 q-14,0 -23,-9 q-9,-9 -9,-23 v-576 q0,-14 9,-23 q9,-9 23,-9 h192 q14,0 23,9 q9,9 9,23 V1104.2711 h1152 v-352 q0,-14 9,-23 q9,-9 23,-9 h192 z" id="path3005" inkscape:connector-curvature="0" style="" stroke-width="0" fill="#ffffff" fill-opacity="1"/>
  </g></g></svg>